<svg xmlns="http://www.w3.org/2000/svg" xmlns:xlink="http://www.w3.org/1999/xlink" viewBox="0,0,256,256" width="48px" height="48px" fill-rule="nonzero"><g fill="#2ecc71" fill-rule="nonzero" stroke="none" stroke-width="1" stroke-linecap="butt" stroke-linejoin="miter" stroke-miterlimit="10" stroke-dasharray="" stroke-dashoffset="0" font-family="none" font-weight="none" font-size="none" text-anchor="none" style="mix-blend-mode: normal"><g transform="scale(5.33333,5.33333)"><g id="Слой_1"><path d="M45.1,23.7l-16.8,21c-0.7,0.8 -1.7,1.3 -2.7,1.3c-0.4,0 -0.8,-0.1 -1.2,-0.2c-1.5,-0.5 -2.4,-1.8 -2.4,-3.3v-10.5h-15.9c-1.5,0 -2.9,-0.9 -3.6,-2.3c-0.7,-1.4 -0.5,-3.1 0.4,-4.4l16,-21c0.9,-1.2 2.4,-1.6 3.8,-1.2c1.4,0.6 2.3,1.9 2.3,3.4v10.5h16.8c1.6,0 3.1,0.9 3.8,2.3c0.7,1.5 0.5,3.1 -0.5,4.4z"></path></g></g></g></svg>